<svg width="45" height="61" viewBox="0 0 45 61" fill="none" xmlns="http://www.w3.org/2000/svg">
<g clip-path="url(#clip0_45_2)">
<path d="M23.0801 56.0973C23.0801 58.8053 25.2765 61 27.9866 61H33.5396C36.2497 61 38.4461 58.8053 38.4461 56.0973V42.7434C38.4461 40.8407 36.9051 39.3009 35.001 39.3097C32.1934 39.3097 29.3771 39.3097 26.5695 39.3186C24.6388 39.3186 23.0801 40.885 23.0801 42.8053V56.0885V56.0973Z" fill="#120E47"/>
<path d="M38.4373 4.90265C38.4373 2.19469 36.2409 0 33.5308 0H27.9777C25.2676 0 23.0712 2.19469 23.0712 4.90265V9.45133C23.0712 11.9558 24.1517 14.3363 26.0293 15.9823C29.3682 18.9115 32.7071 21.8319 36.0372 24.7611C36.9671 25.5752 38.4284 24.9204 38.4284 23.6814V4.90265H38.4373Z" fill="#120E47"/>
<path d="M14.9941 6.41595C13.4797 4.65488 11.0795 4.03542 9.06911 4.83188C6.82841 5.71683 6.12874 7.91152 6.04904 8.20356L0.239156 33.4602C0.186017 33.6195 -0.619927 36.1239 1.03624 38.1151C2.24959 39.5752 3.9589 39.7699 4.3043 39.7965L20.1486 39.7788C22.0085 39.7788 23.5141 38.2744 23.5141 36.4159V17.3982C23.5141 14.8142 22.2476 12.3805 20.0866 10.8938C18.3773 9.39825 16.6946 7.91152 14.9853 6.41595H14.9941Z" fill="#120E47"/>
<path d="M43.2464 29.2832C42.4316 28.5664 41.6168 27.8584 40.802 27.1416C39.8809 26.3363 38.4373 26.9911 38.4373 28.2124V36.5664C38.4373 37.5929 39.2698 38.4159 40.2972 38.4159H40.5806C40.6514 38.4159 40.7312 38.4159 40.802 38.3894C42.6353 37.9823 44.1409 36.6637 44.7254 34.9115C45.3897 32.938 44.8052 30.7257 43.2376 29.2832H43.2464Z" fill="#120E47"/>
</g>
<defs>
<clipPath id="clip0_45_2">
<rect width="45" height="61" fill="white"/>
</clipPath>
</defs>
</svg>
